<?xml version="1.0" standalone="no"?>
<!DOCTYPE svg PUBLIC "-//W3C//DTD SVG 20010904//EN"
 "http://www.w3.org/TR/2001/REC-SVG-20010904/DTD/svg10.dtd">
<svg version="1.0" xmlns="http://www.w3.org/2000/svg"
 width="1024.000000pt" height="1024.000000pt" viewBox="0 0 1024.000000 1024.000000"
 preserveAspectRatio="xMidYMid meet">
<metadata>
Created by potrace 1.14, written by Peter Selinger 2001-2017
</metadata>
<g transform="translate(0.000000,1024.000000) scale(0.100000,-0.100000)"
fill="#d300c5" stroke="none">
<path d="M5075 9298 c-22 -11 -170 -96 -330 -188 -159 -92 -307 -177 -327
-189 -21 -12 -55 -30 -75 -42 -21 -12 -42 -25 -48 -29 -5 -4 -32 -20 -60 -36
-27 -15 -267 -153 -533 -306 -265 -153 -497 -287 -515 -297 -17 -10 -99 -57
-180 -105 -82 -47 -150 -86 -153 -86 -2 0 -36 -20 -76 -44 -66 -40 -778 -452
-888 -514 -25 -14 -114 -65 -198 -114 -84 -49 -168 -97 -185 -107 l-32 -18 -3
-2101 -2 -2101 62 -37 c35 -20 79 -46 98 -56 19 -11 64 -37 100 -58 36 -21 81
-47 100 -58 19 -10 150 -86 290 -167 444 -256 714 -412 750 -432 19 -11 86
-50 149 -87 62 -36 116 -66 119 -66 3 0 13 -6 21 -14 9 -7 48 -30 86 -51 67
-37 119 -66 160 -92 11 -7 36 -21 55 -31 19 -11 134 -77 255 -147 121 -71 238
-138 260 -150 22 -12 137 -78 255 -147 363 -211 622 -360 680 -391 30 -16 62
-36 71 -43 8 -8 19 -14 24 -14 4 0 30 -14 56 -31 l48 -30 358 206 c197 114
390 226 428 248 39 23 79 47 90 53 11 6 112 64 225 129 113 65 277 159 365
210 88 51 205 118 260 150 55 32 174 101 265 153 91 52 224 129 295 170 156
91 257 149 475 274 91 52 210 121 265 153 55 32 120 69 145 83 25 14 50 28 55
32 6 4 30 19 55 33 25 14 115 65 200 115 l155 89 0 2103 0 2103 -274 158
c-150 87 -320 185 -376 218 -57 34 -105 61 -108 61 -2 0 -46 25 -96 55 -51 30
-93 55 -95 55 -2 0 -34 19 -72 41 -37 23 -88 53 -113 67 -25 14 -145 82 -266
152 -322 187 -924 534 -965 557 -48 27 -213 123 -278 162 -29 17 -55 31 -58
31 -2 0 -23 11 -45 25 -22 14 -97 59 -167 99 -70 40 -251 144 -402 231 -151
87 -284 164 -295 171 -18 12 -27 11 -60 -8z m245 -333 c102 -59 203 -117 225
-130 56 -31 97 -55 200 -115 50 -29 106 -61 125 -72 19 -11 76 -44 125 -73 50
-29 110 -63 135 -77 25 -14 272 -157 550 -318 278 -161 523 -302 545 -315 22
-12 69 -39 105 -60 36 -21 76 -44 90 -51 14 -8 273 -157 575 -332 l550 -319 3
-1981 2 -1982 -22 -14 c-13 -7 -42 -24 -65 -37 -39 -22 -349 -201 -923 -533
-124 -71 -240 -137 -258 -147 -18 -9 -38 -22 -45 -27 -7 -5 -37 -23 -67 -39
-66 -36 -224 -127 -298 -171 -29 -18 -55 -32 -58 -32 -3 0 -17 -9 -32 -19 -21
-15 -475 -277 -672 -388 -205 -116 -781 -449 -802 -464 -15 -10 -29 -19 -32
-19 -3 0 -40 -21 -83 -46 l-78 -46 -55 28 c-30 16 -90 50 -133 76 -43 27 -80
48 -82 48 -3 0 -42 22 -87 49 -46 26 -159 92 -253 146 -324 186 -1048 604
-1185 683 -52 30 -108 63 -125 72 -16 9 -66 39 -110 65 -44 26 -89 51 -100 56
-11 5 -27 13 -35 19 -15 10 -265 156 -325 190 -62 34 -161 91 -175 100 -27 17
-293 170 -295 170 -1 0 -110 62 -241 139 l-239 138 0 1984 0 1983 85 49 c47
27 103 59 125 72 39 21 728 420 786 453 27 16 259 150 384 222 85 48 280 161
315 182 15 9 136 78 267 154 131 76 324 187 428 247 105 60 208 120 230 132
22 13 150 87 285 165 135 78 263 153 285 165 22 13 87 50 145 84 62 35 109 56
115 51 5 -4 93 -56 195 -115z"/>
<path d="M4797 7980 c-168 -98 -312 -181 -319 -184 -7 -3 -28 -15 -46 -26 -29
-18 -382 -221 -470 -272 -18 -10 -90 -51 -160 -92 -362 -209 -460 -266 -492
-285 -19 -11 -41 -24 -49 -28 -14 -6 -222 -125 -251 -143 -8 -5 -118 -68 -245
-141 -126 -72 -245 -141 -262 -153 l-33 -21 0 -1521 0 -1522 213 -123 c116
-67 226 -130 242 -139 17 -9 116 -67 220 -127 105 -61 213 -124 241 -139 65
-37 384 -222 404 -234 8 -5 119 -69 245 -141 127 -73 374 -215 550 -317 176
-102 335 -193 353 -204 18 -10 65 -36 103 -58 l70 -40 167 97 c92 53 183 106
204 117 111 63 389 224 973 561 94 54 184 106 200 115 143 82 376 217 400 231
17 11 37 22 44 26 8 4 102 58 209 120 107 62 196 113 198 113 2 0 36 20 76 44
40 24 93 55 118 69 l45 25 3 1525 2 1525 -647 372 c-357 205 -660 381 -675
391 -15 11 -29 19 -32 19 -2 0 -37 19 -78 43 -40 24 -93 55 -118 69 -52 30
-231 133 -275 158 -121 70 -428 247 -462 266 -23 13 -106 61 -185 107 -79 46
-150 86 -158 89 -9 3 -138 -65 -323 -172z m-221 -1490 c13 -19 47 -69 76 -111
29 -42 120 -175 201 -295 82 -121 194 -286 250 -369 57 -82 156 -229 221 -325
127 -187 227 -332 233 -339 15 -19 18 101 18 742 l0 732 383 1 382 1 0 -1407
0 -1407 -316 0 c-233 0 -319 3 -327 12 -7 7 -43 57 -80 111 -85 124 -605 879
-739 1074 -55 80 -121 175 -146 213 -24 37 -49 67 -53 67 -5 0 -9 -64 -9 -142
0 -79 -1 -411 -3 -738 l-2 -595 -377 -1 c-208 -1 -379 2 -379 5 -1 3 -3 636
-4 1406 l-1 1401 324 -1 325 0 23 -35z"/>
</g>
</svg>
