<svg width="40" height="40" viewBox="0 0 40 40" fill="none" xmlns="http://www.w3.org/2000/svg">
<circle cx="20" cy="20" r="20" fill="#4193EF"/>
<path d="M18.4041 27.0895C16.6618 26.6925 15.1272 25.6666 14.0941 24.2084C13.0612 22.7502 12.6024 20.9621 12.8059 19.1866C13.0093 17.411 13.8608 15.7732 15.1969 14.5865C16.533 13.3998 18.26 12.7477 20.0471 12.7552C21.8341 12.7627 23.5556 13.4293 24.8816 14.6271C26.2078 15.8251 27.0452 17.4701 27.2339 19.2473C27.2561 19.4582 27.445 19.6114 27.656 19.5892C27.8669 19.567 28.02 19.3781 27.9979 19.1671C27.7874 17.2039 26.8604 15.3875 25.3943 14.065C23.9281 12.7426 22.0258 12.0074 20.0517 12.0001C18.0773 11.9927 16.1697 12.7137 14.6938 14.0251C13.2178 15.3365 12.2774 17.146 12.0523 19.1076C11.8273 21.0692 12.3335 23.0447 13.4741 24.6563C14.6147 26.2678 16.3096 27.4021 18.2344 27.8422C18.2627 27.8481 18.2915 27.8514 18.3203 27.8517C18.5315 27.8749 18.7213 27.7228 18.7445 27.5117C18.7677 27.3007 18.6154 27.1109 18.4044 27.0877L18.4041 27.0895Z" fill="white"/>
<path d="M20.2073 15.2648C20.0892 15.1966 19.9435 15.1966 19.8254 15.2648L16.0054 17.4708C15.8874 17.539 15.8146 17.6648 15.8145 17.8013V22.2114C15.8146 22.3478 15.8874 22.4737 16.0054 22.5419L19.8254 24.7479C19.9435 24.8161 20.0892 24.8161 20.2073 24.7479L24.0273 22.5419C24.1453 22.4737 24.2181 22.3478 24.2183 22.2114V17.8013C24.2181 17.6648 24.1453 17.539 24.0273 17.4708L20.2073 15.2648ZM20.0164 16.0288L23.1468 17.8356L20.0164 19.6519L16.8859 17.8432L20.0164 16.0288ZM16.5784 18.5499L19.6344 20.3129V23.7508L16.5784 21.9916V18.5499ZM20.3983 23.7546V20.3167L23.4543 18.5537V21.9916L20.3983 23.7546Z" fill="white"/>
</svg>
