<svg width="40" height="40" viewBox="0 0 40 40" fill="none" xmlns="http://www.w3.org/2000/svg">
<circle cx="20" cy="20" r="20" fill="#4193EF"/>
<path d="M27.6379 14.7662L20.3045 11.0723C20.1133 10.9759 19.8864 10.9759 19.6954 11.0723L12.362 14.7662C12.1397 14.8782 12 15.1026 12 15.3478V23.6522C12 23.8974 12.1398 24.1218 12.362 24.2338L19.6954 27.9277C19.8865 28.0241 20.1135 28.0241 20.3045 27.9277L27.6379 24.2338C27.8602 24.1218 27.9998 23.8974 27.9998 23.6522L28 15.3478C28 15.1028 27.8602 14.8782 27.6379 14.7662V14.7662ZM26.6666 19.6946C25.7063 18.9241 24.6313 18.1924 23.9999 18.1924C23.0852 18.1924 21.2539 19.7078 20.1919 20.6609C20.5901 20.9463 20.8797 21.1675 20.9734 21.24C21.1903 21.4074 21.2275 21.7159 21.0565 21.9282C20.8857 22.142 20.5713 22.1774 20.3543 22.01C18.7932 20.8032 16.6844 19.5002 15.9999 19.5002C15.9486 19.5002 15.8895 19.5134 15.8325 19.5228C15.2794 19.6539 14.2966 20.3516 13.3331 21.1511L13.3332 15.7467L20 12.3888L26.6668 15.7467L26.6666 19.6946Z" fill="white"/>
</svg>
