<svg width="229" height="235" viewBox="0 0 229 235" fill="none" xmlns="http://www.w3.org/2000/svg">
<path d="M78.5394 214.095C92.8293 219.83 117.238 213.288 137.807 205.967C141.763 204.559 145.584 203.116 149.151 201.724C151.041 200.989 151.983 198.86 151.248 196.969C150.515 195.08 148.366 194.129 146.496 194.873L146.476 194.88C134.361 199.573 97.5756 213.816 81.2684 207.268C74.6051 204.595 66.3525 198.193 59.7319 190.565C54.0988 184.07 46.9372 173.674 44.8557 161.031C42.2671 145.318 48.3672 131.003 62.9841 118.479C79.0591 104.711 96.8701 87.6783 104.754 59.7746C104.83 59.4841 104.878 59.1946 104.888 58.8966L105.843 30.3926C105.859 29.9795 105.881 29.2931 107.435 28.74L107.469 28.7278C111.122 27.4538 117.46 29.0107 119.797 31.756C124.288 37.0287 129.415 51.1071 128.327 57.7085L125.465 74.1405C125.119 76.1413 126.454 78.0458 128.456 78.3913C130.456 78.7391 132.359 77.3989 132.707 75.4017L135.574 58.9398C137.063 49.9229 131.222 33.8413 125.396 26.9928C121.096 21.9418 111.588 19.5085 105.049 21.791L104.975 21.8174C100.989 23.2362 98.6309 26.2707 98.5014 30.1512L97.5635 58.2029C90.1712 83.8871 73.3799 99.8997 58.2073 112.903C37.4007 130.723 35.5197 149.565 37.6082 162.228C39.971 176.567 47.9298 188.172 54.1859 195.385C61.6335 203.974 70.7372 210.965 78.538 214.096L78.5394 214.095Z" fill="url(#paint0_linear_85_1003)"/>
<path fill-rule="evenodd" clip-rule="evenodd" d="M143.55 115.08L177.673 102.935C178.15 102.765 178.615 102.576 179.066 102.368C179.568 102.137 180.052 101.882 180.519 101.608C185.985 99.93 195.135 103.01 196.596 107.116L197.295 109.079C198.985 113.827 196.498 119.064 191.75 120.754L151.262 135.165C146.593 136.827 141.248 134.289 139.586 129.619L138.884 127.646C138.18 125.667 138.122 125.505 138.336 124.341C138.707 122.343 137.389 120.427 135.396 120.055C133.398 119.685 131.482 121.002 131.11 122.995C130.529 126.107 131.127 127.787 131.958 130.122L132.657 132.086C135.706 140.652 145.156 145.141 153.722 142.092L184.095 131.281C188.859 129.585 194 133.513 195.632 138.097L196.331 140.061C198.021 144.809 195.533 150.046 190.785 151.736L183.289 154.404C183.158 154.448 183.027 154.493 182.895 154.54C182.833 154.562 182.773 154.585 182.712 154.61L163.028 161.616C158.28 163.306 153.042 160.818 151.352 156.07L150.52 153.731C150.147 152.692 150.007 152.302 149.997 151.909C149.991 151.674 150.031 151.438 150.093 151.061C150.43 149.059 149.08 147.166 147.078 146.83C145.073 146.49 143.18 147.844 142.846 149.847C142.362 152.744 142.881 154.203 143.605 156.22L144.429 158.534C147.478 167.101 156.926 171.59 165.493 168.54L185.645 161.368C190.933 159.688 193.546 164.535 194.641 167.61L195.34 169.575C197.03 174.323 194.542 179.56 189.794 181.25L168.398 188.866C163.728 190.528 158.383 187.989 156.721 183.32L156.022 181.355C155.1 178.765 155.055 178.246 155.601 176.743C156.293 174.834 155.308 172.723 153.4 172.031C151.493 171.339 149.381 172.324 148.69 174.231C147.277 178.122 147.93 180.553 149.093 183.822L149.792 185.787C152.841 194.353 162.291 198.842 170.857 195.793L192.253 188.177C200.814 185.13 205.303 175.681 202.264 167.111L201.564 165.146C200.354 161.745 198.607 159.032 196.485 157.096C202.89 153.079 205.893 145.008 203.255 137.596L202.557 135.633C201.346 132.232 199.019 129.116 196.054 126.896C203.408 123.229 207.042 114.545 204.22 106.615L203.521 104.651C201.425 98.762 194.306 94.9233 187.243 94.009C188.869 90.2959 189.142 85.9832 187.679 81.8717L186.98 79.9067C183.931 71.3401 174.481 66.8516 165.915 69.9007L131.792 82.0457C123.226 85.0948 118.737 94.5441 121.786 103.111L122.486 105.076C125.534 113.641 134.983 118.129 143.55 115.08L143.55 115.08ZM175.208 96.0118C175.779 95.8086 176.316 95.5541 176.819 95.2558L176.948 95.1697C177.013 95.1277 177.081 95.088 177.15 95.0497C180.597 92.7923 182.196 88.3861 180.754 84.3365L180.055 82.3715C178.365 77.6235 173.127 75.1357 168.379 76.8256L134.257 88.9706C129.509 90.6606 127.021 95.8981 128.711 100.646L129.411 102.611C131.1 107.358 136.338 109.847 141.086 108.157L175.208 96.0118Z" fill="url(#paint1_linear_85_1003)"/>
<path d="M104.022 147.774C104.936 149.305 106.79 149.932 108.407 149.357C108.63 149.277 108.851 149.176 109.062 149.051C119.68 142.714 125.919 133.734 128.123 121.593C128.487 119.597 127.16 117.683 125.164 117.319C123.161 116.956 121.249 118.283 120.889 120.278C119.06 130.34 114.105 137.475 105.293 142.736C103.551 143.774 102.983 146.032 104.022 147.774L104.022 147.774Z" fill="url(#paint2_linear_85_1003)"/>
<defs>
<linearGradient id="paint0_linear_85_1003" x1="61.8195" y1="37.1775" x2="187.125" y2="173.149" gradientUnits="userSpaceOnUse">
<stop stop-color="#7638FA"/>
<stop offset="0.541667" stop-color="#D300C5" stop-opacity="0.459652"/>
<stop offset="1" stop-color="#FF0A00"/>
</linearGradient>
<linearGradient id="paint1_linear_85_1003" x1="151.655" y1="74.976" x2="235.079" y2="159.338" gradientUnits="userSpaceOnUse">
<stop stop-color="#7638FA"/>
<stop offset="0.541667" stop-color="#D300C5" stop-opacity="0.459652"/>
<stop offset="1" stop-color="#FF0A00"/>
</linearGradient>
<linearGradient id="paint2_linear_85_1003" x1="111.642" y1="121.611" x2="126.075" y2="143.905" gradientUnits="userSpaceOnUse">
<stop stop-color="#7638FA"/>
<stop offset="0.541667" stop-color="#D300C5" stop-opacity="0.459652"/>
<stop offset="1" stop-color="#FF0A00"/>
</linearGradient>
</defs>
</svg>
