<svg width="40" height="40" viewBox="0 0 40 40" fill="none" xmlns="http://www.w3.org/2000/svg">
<circle cx="20" cy="20" r="20" fill="#2B2E35"/>
<g clip-path="url(#clip0_103_1225)">
<path d="M24.0007 16.6667H26.0007C26.1775 16.6667 26.347 16.7369 26.4721 16.8619C26.5971 16.987 26.6673 17.1565 26.6673 17.3333V25.3333C26.6673 25.5101 26.5971 25.6797 26.4721 25.8047C26.347 25.9298 26.1775 26 26.0007 26H14.0007C13.8238 26 13.6543 25.9298 13.5292 25.8047C13.4042 25.6797 13.334 25.5101 13.334 25.3333V14.6667C13.334 14.4899 13.4042 14.3203 13.5292 14.1953C13.6543 14.0702 13.8238 14 14.0007 14H24.0007V16.6667ZM14.6673 18V24.6667H25.334V18H14.6673ZM14.6673 15.3333V16.6667H22.6673V15.3333H14.6673ZM22.0007 20.6667H24.0007V22H22.0007V20.6667Z" fill="white"/>
</g>
<defs>
<clipPath id="clip0_103_1225">
<rect width="16" height="16" fill="white" transform="translate(12 12)"/>
</clipPath>
</defs>
</svg>
